Coordinates
version=1
nRows=17
nColumns=24
inDegrees=yes

Units are S.I. units (second, meters, Newtons, ...)
Angles are in degrees.

endheader
time	pelvis_tilt	pelvis_list	pelvis_rotation	pelvis_tx	pelvis_ty	pelvis_tz	hip_flexion_r	hip_adduction_r	hip_rotation_r	knee_angle_r	ankle_angle_r	subtalar_angle_r	mtp_angle_r	hip_flexion_l	hip_adduction_l	hip_rotation_l	knee_angle_l	ankle_angle_l	subtalar_angle_l	mtp_angle_l	lumbar_extension	lumbar_bending	lumbar_rotation
      4.57500000	    -10.04307149	      9.25690382	     -1.74863529	     -0.10157990	     -0.02126030	      0.60909339	     24.09220654	    -13.98870322	     -4.37999929	    -64.84925104	     -4.92157308	     -1.59666904	     14.20528536	     19.48711912	     11.51463523	     -3.64898823	    -16.90547087	      2.53840471	      8.29209357	      1.63724116	      7.80465541	    -11.12190795	     -0.03924387
      4.58000000	    -10.00922780	      9.00255982	     -1.44276003	     -0.09525222	     -0.02017355	      0.60884225	     24.78075890	    -13.85782288	     -4.83525129	    -64.50317432	     -4.59010946	     -1.12805437	     14.29322959	     18.63868906	     11.46533826	     -2.78911199	    -16.33895317	      2.70351163	      7.90700847	      1.13954853	      7.69614659	    -10.91770038	     -0.49306793
      4.58500000	    -10.00115236	      8.72494804	     -1.15928935	     -0.08902285	     -0.01919585	      0.60866610	     25.49756643	    -13.66290162	     -5.21737004	    -64.08577463	     -4.29408506	     -0.62904646	     14.40373608	     17.86400313	     11.34646892	     -2.10685037	    -15.83564178	      2.89605947	      7.68287105	      0.77841371	      7.60312700	    -10.68540976	     -0.98837193
      4.59000000	     -9.98243371	      8.44508836	     -0.87983921	     -0.08275752	     -0.01825110	      0.60851216	     26.17478439	    -13.46336789	     -5.61068957	    -63.57565306	     -4.03507527	     -0.19048281	     14.50184391	     17.07203739	     11.21447257	     -1.40968837	    -15.32104855	      3.06680701	      7.41123538	      0.39648804	      7.51086139	    -10.45256600	     -1.47169765
      4.59500000	     -9.95066957	      8.18168314	     -0.59427378	     -0.07643738	     -0.01735566	      0.60835807	     26.80996661	    -13.28945722	     -6.02447317	    -62.98575512	     -3.80071487	      0.16138759	     14.58162724	     16.25374599	     11.09184336	     -0.68556369	    -14.78862389	      3.22965441	      7.10542467	     -0.07270052	      7.41940032	    -10.23528411	     -1.90534382
      4.60000000	     -9.93502046	      7.91867419	     -0.32123933	     -0.07020650	     -0.01657538	      0.60826496	     27.46292026	    -13.09010508	     -6.38241024	    -62.33870480	     -3.60830073	      0.49022730	     14.63671939	     15.48480663	     10.93870276	     -0.05968534	    -14.29263402	      3.41760516	      6.91113057	     -0.42321177	      7.33368539	    -10.01868412	     -2.38894702
      4.60500000	     -9.90886523	      7.66436498	     -0.04767236	     -0.06393690	     -0.01584442	      0.60817981	     28.07612300	    -12.90560304	     -6.75655658	    -61.61321044	     -3.43685124	      0.72948882	     14.64860740	     14.69515967	     10.78340279	      0.57697166	    -13.77806094	      3.58892224	      6.69416498	     -0.78864536	      7.24869131	     -9.81060160	     -2.84028045
      4.61000000	     -9.88712777	      7.42063105	      0.21666721	     -0.05767418	     -0.01519658	      0.60812206	     28.67833706	    -12.72612850	     -7.11615492	    -60.82202763	     -3.28549031	      0.90285818	     14.61302772	     13.91795014	     10.61985650	      1.16779379	    -13.26721406	      3.76114368	      6.51316578	     -1.12652362	      7.17308981	     -9.61168426	     -3.27720721
      4.61500000	     -9.86336046	      7.18958056	      0.47612844	     -0.05140951	     -0.01462628	      0.60808656	     29.25828802	    -12.55946093	     -7.47229849	    -59.96528406	     -3.14648160	      1.00067185	     14.51772344	     13.14137232	     10.45381355	      1.73308762	    -12.75353765	      3.93157293	      6.35421170	     -1.44721869	      7.10036740	     -9.42556089	     -3.69639350
      4.62000000	     -9.84370154	      6.96729282	      0.72354784	     -0.04515843	     -0.01414079	      0.60807792	     29.82585508	    -12.39611057	     -7.81326871	    -59.04523253	     -3.02136531	      1.03353861	     14.35820459	     12.37818678	     10.27916635	      2.25400280	    -12.24469116	      4.10244826	      6.23016474	     -1.72756414	      7.03459874	     -9.24553715	     -4.10431044
      4.62500000	     -9.82755297	      6.75284227	      0.96220557	     -0.03891604	     -0.01373883	      0.60809572	     30.37692144	    -12.23622853	     -8.14196435	    -58.06092204	     -2.90906398	      0.99998521	     14.13142716	     11.62705638	     10.09684715	      2.73241158	    -11.73989877	      4.27362274	      6.13645397	     -1.96308430	      6.97540294	     -9.07195152	     -4.50075409
      4.63000000	     -9.80781571	      6.55111979	      1.19128130	     -0.03268466	     -0.01341823	      0.60812978	     30.90437681	    -12.08890490	     -8.46473829	    -57.01732491	     -2.79733591	      0.90460854	     13.82573171	     10.87778977	      9.91493077	      3.18641542	    -11.23614014	      4.44325718	      6.05903738	     -2.17405758	      6.91270888	     -8.90782899	     -4.88113196
      4.63500000	     -9.85666255	      6.35204052	      1.34728517	     -0.02645251	     -0.01328135	      0.60826621	     31.50960478	    -11.90029848	     -8.69656214	    -55.91457969	     -2.69122196	      0.79700289	     13.58150111	     10.22600410	      9.70583934	      3.47753609	    -10.75371559	      4.64771485	      6.07286131	     -2.25156547	      6.94288933	     -8.73467051	     -5.15129383
      4.64000000	     -9.80339556	      6.15167035	      1.60299194	     -0.02022231	     -0.01303130	      0.60826030	     31.92660708	    -11.78175157	     -9.07823231	    -54.72143200	     -2.63511341	      0.52763897	     13.10835392	      9.46166799	      9.51486489	      3.90142539	    -10.27650670	      4.78199147	      6.01583562	     -2.41362635	      6.84179778	     -8.56907911	     -5.58212864
      4.64500000	     -9.74525860	      5.99396627	      1.80888928	     -0.01402299	     -0.01293907	      0.60837498	     32.34631558	    -11.67489677	     -9.38154355	    -53.51015613	     -2.50778623	      0.29737632	     12.49840595	      8.69140991	      9.34595628	      4.32967852	     -9.78997377	      4.97037931	      5.95291790	     -2.58856691	      6.73503889	     -8.45080894	     -5.94263744
      4.65000000	     -9.72829555	      5.82968801	      1.98434389	     -0.00780548	     -0.01295731	      0.60850367	     32.78700282	    -11.55003598	     -9.66732483	    -52.22890311	     -2.39654727	      0.05189747	     11.83929172	      7.98675979	      9.15929639	      4.66353986	     -9.33445593	      5.17046003	      5.93437289	     -2.73146661	      6.68481740	     -8.31246318	     -6.24730280
      4.65500000	     -9.67669332	      5.67610925	      2.13522730	     -0.00154789	     -0.01301747	      0.60863034	     33.16211584	    -11.43509113	     -9.93848843	    -50.90516792	     -2.21659471	     -0.00773700	     10.84895968	      7.24099144	      8.97867085	      4.99776254	     -8.87558339	      5.37299451	      5.87092984	     -2.95014703	      6.60558350	     -8.17386089	     -6.52361439
